<mxfile host="app.diagrams.net" modified="2022-12-17T20:04:36.921Z" agent="5.0 (Windows NT 10.0; Win64; x64) AppleWebKit/537.36 (KHTML, like Gecko) Chrome/108.0.0.0 Safari/537.36" etag="7kSSUXmQL5oOlFRvycoj" version="20.6.0" type="github">
  <diagram id="kWUGdpk_LTITHDIgR2Lf" name="Page-2">
    <mxGraphModel dx="4501" dy="1540" grid="1" gridSize="10" guides="1" tooltips="1" connect="1" arrows="1" fold="1" page="1" pageScale="1" pageWidth="850" pageHeight="1100" math="0" shadow="0">
      <root>
        <mxCell id="0" />
        <mxCell id="1" parent="0" />
        <mxCell id="rb9hFaZGPkE7uMHk5LES-30" value="View" style="shape=umlFrame;whiteSpace=wrap;html=1;" vertex="1" parent="1">
          <mxGeometry x="1290" y="70" width="540" height="450" as="geometry" />
        </mxCell>
        <mxCell id="rb9hFaZGPkE7uMHk5LES-29" value="Control" style="shape=umlFrame;whiteSpace=wrap;html=1;" vertex="1" parent="1">
          <mxGeometry x="975" y="174" width="195" height="136" as="geometry" />
        </mxCell>
        <mxCell id="rb9hFaZGPkE7uMHk5LES-28" value="Model" style="shape=umlFrame;whiteSpace=wrap;html=1;" vertex="1" parent="1">
          <mxGeometry x="-470" y="33" width="1400" height="1034" as="geometry" />
        </mxCell>
        <mxCell id="YSj9dfxvYQV-vy0zDjBh-33" value="" style="rounded=0;whiteSpace=wrap;html=1;" parent="1" vertex="1">
          <mxGeometry x="90" y="360" width="420" height="220" as="geometry" />
        </mxCell>
        <mxCell id="JQG7szLsVoPtQsITSdDX-5" value="FascismScale" style="swimlane;fontStyle=1;align=center;verticalAlign=top;childLayout=stackLayout;horizontal=1;startSize=26;horizontalStack=0;resizeParent=1;resizeParentMax=0;resizeLast=0;collapsible=1;marginBottom=0;" parent="1" vertex="1">
          <mxGeometry x="1390" y="100" width="160" height="34" as="geometry" />
        </mxCell>
        <mxCell id="JQG7szLsVoPtQsITSdDX-7" value="" style="line;strokeWidth=1;fillColor=none;align=left;verticalAlign=middle;spacingTop=-1;spacingLeft=3;spacingRight=3;rotatable=0;labelPosition=right;points=[];portConstraint=eastwest;strokeColor=inherit;" parent="JQG7szLsVoPtQsITSdDX-5" vertex="1">
          <mxGeometry y="26" width="160" height="8" as="geometry" />
        </mxCell>
        <mxCell id="JQG7szLsVoPtQsITSdDX-14" value="GameBoard" style="swimlane;fontStyle=1;align=center;verticalAlign=top;childLayout=stackLayout;horizontal=1;startSize=26;horizontalStack=0;resizeParent=1;resizeParentMax=0;resizeLast=0;collapsible=1;marginBottom=0;" parent="1" vertex="1">
          <mxGeometry x="1600" y="450" width="160" height="34" as="geometry">
            <mxRectangle x="1000" y="80" width="110" height="30" as="alternateBounds" />
          </mxGeometry>
        </mxCell>
        <mxCell id="JQG7szLsVoPtQsITSdDX-16" value="" style="line;strokeWidth=1;fillColor=none;align=left;verticalAlign=middle;spacingTop=-1;spacingLeft=3;spacingRight=3;rotatable=0;labelPosition=right;points=[];portConstraint=eastwest;strokeColor=inherit;" parent="JQG7szLsVoPtQsITSdDX-14" vertex="1">
          <mxGeometry y="26" width="160" height="8" as="geometry" />
        </mxCell>
        <mxCell id="JQG7szLsVoPtQsITSdDX-21" value="CardViewer" style="swimlane;fontStyle=1;align=center;verticalAlign=top;childLayout=stackLayout;horizontal=1;startSize=26;horizontalStack=0;resizeParent=1;resizeParentMax=0;resizeLast=0;collapsible=1;marginBottom=0;" parent="1" vertex="1">
          <mxGeometry x="1380" y="446" width="160" height="34" as="geometry" />
        </mxCell>
        <mxCell id="JQG7szLsVoPtQsITSdDX-23" value="" style="line;strokeWidth=1;fillColor=none;align=left;verticalAlign=middle;spacingTop=-1;spacingLeft=3;spacingRight=3;rotatable=0;labelPosition=right;points=[];portConstraint=eastwest;strokeColor=inherit;" parent="JQG7szLsVoPtQsITSdDX-21" vertex="1">
          <mxGeometry y="26" width="160" height="8" as="geometry" />
        </mxCell>
        <mxCell id="JQG7szLsVoPtQsITSdDX-25" value="Dice" style="swimlane;fontStyle=1;align=center;verticalAlign=top;childLayout=stackLayout;horizontal=1;startSize=26;horizontalStack=0;resizeParent=1;resizeParentMax=0;resizeLast=0;collapsible=1;marginBottom=0;" parent="1" vertex="1">
          <mxGeometry x="1600" y="100" width="160" height="34" as="geometry" />
        </mxCell>
        <mxCell id="JQG7szLsVoPtQsITSdDX-27" value="" style="line;strokeWidth=1;fillColor=none;align=left;verticalAlign=middle;spacingTop=-1;spacingLeft=3;spacingRight=3;rotatable=0;labelPosition=right;points=[];portConstraint=eastwest;strokeColor=inherit;" parent="JQG7szLsVoPtQsITSdDX-25" vertex="1">
          <mxGeometry y="26" width="160" height="8" as="geometry" />
        </mxCell>
        <mxCell id="JQG7szLsVoPtQsITSdDX-29" value="ViewManager" style="swimlane;fontStyle=1;align=center;verticalAlign=top;childLayout=stackLayout;horizontal=1;startSize=26;horizontalStack=0;resizeParent=1;resizeParentMax=0;resizeLast=0;collapsible=1;marginBottom=0;" parent="1" vertex="1">
          <mxGeometry x="1360" y="274" width="160" height="34" as="geometry" />
        </mxCell>
        <mxCell id="JQG7szLsVoPtQsITSdDX-31" value="" style="line;strokeWidth=1;fillColor=none;align=left;verticalAlign=middle;spacingTop=-1;spacingLeft=3;spacingRight=3;rotatable=0;labelPosition=right;points=[];portConstraint=eastwest;strokeColor=inherit;" parent="JQG7szLsVoPtQsITSdDX-29" vertex="1">
          <mxGeometry y="26" width="160" height="8" as="geometry" />
        </mxCell>
        <mxCell id="JQG7szLsVoPtQsITSdDX-33" value="Play" style="swimlane;fontStyle=1;align=center;verticalAlign=top;childLayout=stackLayout;horizontal=1;startSize=26;horizontalStack=0;resizeParent=1;resizeParentMax=0;resizeLast=0;collapsible=1;marginBottom=0;" parent="1" vertex="1">
          <mxGeometry x="1600" y="274" width="160" height="34" as="geometry" />
        </mxCell>
        <mxCell id="JQG7szLsVoPtQsITSdDX-35" value="" style="line;strokeWidth=1;fillColor=none;align=left;verticalAlign=middle;spacingTop=-1;spacingLeft=3;spacingRight=3;rotatable=0;labelPosition=right;points=[];portConstraint=eastwest;strokeColor=inherit;" parent="JQG7szLsVoPtQsITSdDX-33" vertex="1">
          <mxGeometry y="26" width="160" height="8" as="geometry" />
        </mxCell>
        <mxCell id="JQG7szLsVoPtQsITSdDX-37" value="Controller" style="swimlane;fontStyle=1;align=center;verticalAlign=top;childLayout=stackLayout;horizontal=1;startSize=26;horizontalStack=0;resizeParent=1;resizeParentMax=0;resizeLast=0;collapsible=1;marginBottom=0;" parent="1" vertex="1" collapsed="1">
          <mxGeometry x="1020" y="219" width="100" height="30" as="geometry">
            <mxRectangle x="940" y="219" width="280" height="400" as="alternateBounds" />
          </mxGeometry>
        </mxCell>
        <mxCell id="JQG7szLsVoPtQsITSdDX-38" value="+ field: type" style="text;strokeColor=none;fillColor=none;align=left;verticalAlign=top;spacingLeft=4;spacingRight=4;overflow=hidden;rotatable=0;points=[[0,0.5],[1,0.5]];portConstraint=eastwest;" parent="JQG7szLsVoPtQsITSdDX-37" vertex="1">
          <mxGeometry y="26" width="280" height="26" as="geometry" />
        </mxCell>
        <mxCell id="JQG7szLsVoPtQsITSdDX-39" value="" style="line;strokeWidth=1;fillColor=none;align=left;verticalAlign=middle;spacingTop=-1;spacingLeft=3;spacingRight=3;rotatable=0;labelPosition=right;points=[];portConstraint=eastwest;strokeColor=inherit;" parent="JQG7szLsVoPtQsITSdDX-37" vertex="1">
          <mxGeometry y="52" width="280" height="8" as="geometry" />
        </mxCell>
        <mxCell id="JQG7szLsVoPtQsITSdDX-40" value="+initializeGame()&#xa;-showFascismLevel()&#xa;-showBoard()&#xa;-setGameBoard()&#xa;-setPlayerCat()&#xa;-setNumPlayers(numPlayers: int)&#xa;-setUpPlanetGrid()&#xa;-setCats()&#xa;-setPlayerTurn(player: int)&#xa;+setGameStatus&#xa;-getNumPlayers():int&#xa;-getPlayerTurn():int&#xa;+getPlayer(num: int): Player&#xa;+getCats():Â &#xa;+getGameStatus():int&#xa;+getPlanetArray(): Planet[][]&#xa;+getAction(): String&#xa;+getAction(player: int): String&#xa;+getFascismScaleValue(): int&#xa;+getCurrPlayer(): int&#xa;+getNumOfDiceRoll(): int[]&#xa;+getDiceRoll(): int&#xa;+getResistCards(player: Player): ResistCard[]&#xa;&#xa;" style="text;strokeColor=none;fillColor=none;align=left;verticalAlign=top;spacingLeft=4;spacingRight=4;overflow=hidden;rotatable=0;points=[[0,0.5],[1,0.5]];portConstraint=eastwest;" parent="JQG7szLsVoPtQsITSdDX-37" vertex="1">
          <mxGeometry y="60" width="280" height="340" as="geometry" />
        </mxCell>
        <mxCell id="JQG7szLsVoPtQsITSdDX-41" value="ModelManager" style="swimlane;fontStyle=1;align=center;verticalAlign=top;childLayout=stackLayout;horizontal=1;startSize=26;horizontalStack=0;resizeParent=1;resizeParentMax=0;resizeLast=0;collapsible=1;marginBottom=0;" parent="1" vertex="1">
          <mxGeometry x="670" y="90" width="160" height="34" as="geometry" />
        </mxCell>
        <mxCell id="JQG7szLsVoPtQsITSdDX-43" value="" style="line;strokeWidth=1;fillColor=none;align=left;verticalAlign=middle;spacingTop=-1;spacingLeft=3;spacingRight=3;rotatable=0;labelPosition=right;points=[];portConstraint=eastwest;strokeColor=inherit;" parent="JQG7szLsVoPtQsITSdDX-41" vertex="1">
          <mxGeometry y="26" width="160" height="8" as="geometry" />
        </mxCell>
        <mxCell id="JQG7szLsVoPtQsITSdDX-45" value="JasperTheCat" style="swimlane;fontStyle=1;align=center;verticalAlign=top;childLayout=stackLayout;horizontal=1;startSize=26;horizontalStack=0;resizeParent=1;resizeParentMax=0;resizeLast=0;collapsible=1;marginBottom=0;" parent="1" vertex="1">
          <mxGeometry x="400" y="824" width="160" height="34" as="geometry" />
        </mxCell>
        <mxCell id="JQG7szLsVoPtQsITSdDX-47" value="" style="line;strokeWidth=1;fillColor=none;align=left;verticalAlign=middle;spacingTop=-1;spacingLeft=3;spacingRight=3;rotatable=0;labelPosition=right;points=[];portConstraint=eastwest;strokeColor=inherit;" parent="JQG7szLsVoPtQsITSdDX-45" vertex="1">
          <mxGeometry y="26" width="160" height="8" as="geometry" />
        </mxCell>
        <mxCell id="JQG7szLsVoPtQsITSdDX-49" value="Action" style="swimlane;fontStyle=1;align=center;verticalAlign=top;childLayout=stackLayout;horizontal=1;startSize=26;horizontalStack=0;resizeParent=1;resizeParentMax=0;resizeLast=0;collapsible=1;marginBottom=0;" parent="1" vertex="1">
          <mxGeometry x="650" y="308" width="160" height="34" as="geometry" />
        </mxCell>
        <mxCell id="JQG7szLsVoPtQsITSdDX-51" value="" style="line;strokeWidth=1;fillColor=none;align=left;verticalAlign=middle;spacingTop=-1;spacingLeft=3;spacingRight=3;rotatable=0;labelPosition=right;points=[];portConstraint=eastwest;strokeColor=inherit;" parent="JQG7szLsVoPtQsITSdDX-49" vertex="1">
          <mxGeometry y="26" width="160" height="8" as="geometry" />
        </mxCell>
        <mxCell id="JQG7szLsVoPtQsITSdDX-53" value="OpheliaTheCat" style="swimlane;fontStyle=1;align=center;verticalAlign=top;childLayout=stackLayout;horizontal=1;startSize=26;horizontalStack=0;resizeParent=1;resizeParentMax=0;resizeLast=0;collapsible=1;marginBottom=0;" parent="1" vertex="1">
          <mxGeometry x="200" y="824" width="160" height="34" as="geometry" />
        </mxCell>
        <mxCell id="rUTjeoC7RKH5R_cGaHuL-8" value="Extends" style="endArrow=block;endSize=16;endFill=0;html=1;rounded=0;" parent="JQG7szLsVoPtQsITSdDX-53" edge="1">
          <mxGeometry width="160" relative="1" as="geometry">
            <mxPoint x="80" as="sourcePoint" />
            <mxPoint x="160" y="-104" as="targetPoint" />
          </mxGeometry>
        </mxCell>
        <mxCell id="JQG7szLsVoPtQsITSdDX-55" value="" style="line;strokeWidth=1;fillColor=none;align=left;verticalAlign=middle;spacingTop=-1;spacingLeft=3;spacingRight=3;rotatable=0;labelPosition=right;points=[];portConstraint=eastwest;strokeColor=inherit;" parent="JQG7szLsVoPtQsITSdDX-53" vertex="1">
          <mxGeometry y="26" width="160" height="8" as="geometry" />
        </mxCell>
        <mxCell id="JQG7szLsVoPtQsITSdDX-57" value="&lt;&lt;abstract&gt;&gt;&#xa;Cat" style="swimlane;fontStyle=1;align=center;verticalAlign=top;childLayout=stackLayout;horizontal=1;startSize=34;horizontalStack=0;resizeParent=1;resizeParentMax=0;resizeLast=0;collapsible=1;marginBottom=0;" parent="1" vertex="1">
          <mxGeometry x="330" y="680" width="160" height="42" as="geometry" />
        </mxCell>
        <mxCell id="JQG7szLsVoPtQsITSdDX-59" value="" style="line;strokeWidth=1;fillColor=none;align=left;verticalAlign=middle;spacingTop=-1;spacingLeft=3;spacingRight=3;rotatable=0;labelPosition=right;points=[];portConstraint=eastwest;strokeColor=inherit;" parent="JQG7szLsVoPtQsITSdDX-57" vertex="1">
          <mxGeometry y="34" width="160" height="8" as="geometry" />
        </mxCell>
        <mxCell id="JQG7szLsVoPtQsITSdDX-61" value="GalacticCard" style="swimlane;fontStyle=1;align=center;verticalAlign=top;childLayout=stackLayout;horizontal=1;startSize=26;horizontalStack=0;resizeParent=1;resizeParentMax=0;resizeLast=0;collapsible=1;marginBottom=0;" parent="1" vertex="1">
          <mxGeometry x="110" y="464" width="160" height="34" as="geometry" />
        </mxCell>
        <mxCell id="JQG7szLsVoPtQsITSdDX-63" value="" style="line;strokeWidth=1;fillColor=none;align=left;verticalAlign=middle;spacingTop=-1;spacingLeft=3;spacingRight=3;rotatable=0;labelPosition=right;points=[];portConstraint=eastwest;strokeColor=inherit;" parent="JQG7szLsVoPtQsITSdDX-61" vertex="1">
          <mxGeometry y="26" width="160" height="8" as="geometry" />
        </mxCell>
        <mxCell id="JQG7szLsVoPtQsITSdDX-65" value="GalacticNewsDeck" style="swimlane;fontStyle=1;align=center;verticalAlign=top;childLayout=stackLayout;horizontal=1;startSize=26;horizontalStack=0;resizeParent=1;resizeParentMax=0;resizeLast=0;collapsible=1;marginBottom=0;" parent="1" vertex="1">
          <mxGeometry x="-130" y="464" width="160" height="34" as="geometry" />
        </mxCell>
        <mxCell id="JQG7szLsVoPtQsITSdDX-67" value="" style="line;strokeWidth=1;fillColor=none;align=left;verticalAlign=middle;spacingTop=-1;spacingLeft=3;spacingRight=3;rotatable=0;labelPosition=right;points=[];portConstraint=eastwest;strokeColor=inherit;" parent="JQG7szLsVoPtQsITSdDX-65" vertex="1">
          <mxGeometry y="26" width="160" height="8" as="geometry" />
        </mxCell>
        <mxCell id="JQG7szLsVoPtQsITSdDX-69" value="AliasTheCat" style="swimlane;fontStyle=1;align=center;verticalAlign=top;childLayout=stackLayout;horizontal=1;startSize=26;horizontalStack=0;resizeParent=1;resizeParentMax=0;resizeLast=0;collapsible=1;marginBottom=0;" parent="1" vertex="1">
          <mxGeometry x="610" y="824" width="160" height="34" as="geometry" />
        </mxCell>
        <mxCell id="JQG7szLsVoPtQsITSdDX-71" value="" style="line;strokeWidth=1;fillColor=none;align=left;verticalAlign=middle;spacingTop=-1;spacingLeft=3;spacingRight=3;rotatable=0;labelPosition=right;points=[];portConstraint=eastwest;strokeColor=inherit;" parent="JQG7szLsVoPtQsITSdDX-69" vertex="1">
          <mxGeometry y="26" width="160" height="8" as="geometry" />
        </mxCell>
        <mxCell id="JQG7szLsVoPtQsITSdDX-73" value="&lt;&lt;abstract&gt;&gt;&#xa;Card" style="swimlane;fontStyle=1;align=center;verticalAlign=top;childLayout=stackLayout;horizontal=1;startSize=40;horizontalStack=0;resizeParent=1;resizeParentMax=0;resizeLast=0;collapsible=1;marginBottom=0;" parent="1" vertex="1">
          <mxGeometry x="370" y="430" width="110" height="48" as="geometry" />
        </mxCell>
        <mxCell id="JQG7szLsVoPtQsITSdDX-75" value="" style="line;strokeWidth=1;fillColor=none;align=left;verticalAlign=middle;spacingTop=-1;spacingLeft=3;spacingRight=3;rotatable=0;labelPosition=right;points=[];portConstraint=eastwest;strokeColor=inherit;" parent="JQG7szLsVoPtQsITSdDX-73" vertex="1">
          <mxGeometry y="40" width="110" height="8" as="geometry" />
        </mxCell>
        <mxCell id="JQG7szLsVoPtQsITSdDX-77" value="PipTheCat" style="swimlane;fontStyle=1;align=center;verticalAlign=top;childLayout=stackLayout;horizontal=1;startSize=26;horizontalStack=0;resizeParent=1;resizeParentMax=0;resizeLast=0;collapsible=1;marginBottom=0;" parent="1" vertex="1">
          <mxGeometry y="824" width="160" height="34" as="geometry" />
        </mxCell>
        <mxCell id="JQG7szLsVoPtQsITSdDX-79" value="" style="line;strokeWidth=1;fillColor=none;align=left;verticalAlign=middle;spacingTop=-1;spacingLeft=3;spacingRight=3;rotatable=0;labelPosition=right;points=[];portConstraint=eastwest;strokeColor=inherit;" parent="JQG7szLsVoPtQsITSdDX-77" vertex="1">
          <mxGeometry y="26" width="160" height="8" as="geometry" />
        </mxCell>
        <mxCell id="JQG7szLsVoPtQsITSdDX-81" value="Planet" style="swimlane;fontStyle=1;align=center;verticalAlign=top;childLayout=stackLayout;horizontal=1;startSize=26;horizontalStack=0;resizeParent=1;resizeParentMax=0;resizeLast=0;collapsible=1;marginBottom=0;" parent="1" vertex="1">
          <mxGeometry x="110" y="236" width="160" height="34" as="geometry" />
        </mxCell>
        <mxCell id="JQG7szLsVoPtQsITSdDX-83" value="" style="line;strokeWidth=1;fillColor=none;align=left;verticalAlign=middle;spacingTop=-1;spacingLeft=3;spacingRight=3;rotatable=0;labelPosition=right;points=[];portConstraint=eastwest;strokeColor=inherit;" parent="JQG7szLsVoPtQsITSdDX-81" vertex="1">
          <mxGeometry y="26" width="160" height="8" as="geometry" />
        </mxCell>
        <mxCell id="JQG7szLsVoPtQsITSdDX-85" value="Player" style="swimlane;fontStyle=1;align=center;verticalAlign=top;childLayout=stackLayout;horizontal=1;startSize=26;horizontalStack=0;resizeParent=1;resizeParentMax=0;resizeLast=0;collapsible=1;marginBottom=0;" parent="1" vertex="1">
          <mxGeometry x="460" y="260" width="160" height="34" as="geometry" />
        </mxCell>
        <mxCell id="JQG7szLsVoPtQsITSdDX-87" value="" style="line;strokeWidth=1;fillColor=none;align=left;verticalAlign=middle;spacingTop=-1;spacingLeft=3;spacingRight=3;rotatable=0;labelPosition=right;points=[];portConstraint=eastwest;strokeColor=inherit;" parent="JQG7szLsVoPtQsITSdDX-85" vertex="1">
          <mxGeometry y="26" width="160" height="8" as="geometry" />
        </mxCell>
        <mxCell id="JQG7szLsVoPtQsITSdDX-89" value="ResistCard" style="swimlane;fontStyle=1;align=center;verticalAlign=top;childLayout=stackLayout;horizontal=1;startSize=26;horizontalStack=0;resizeParent=1;resizeParentMax=0;resizeLast=0;collapsible=1;marginBottom=0;" parent="1" vertex="1">
          <mxGeometry x="110" y="378" width="160" height="34" as="geometry" />
        </mxCell>
        <mxCell id="JQG7szLsVoPtQsITSdDX-91" value="" style="line;strokeWidth=1;fillColor=none;align=left;verticalAlign=middle;spacingTop=-1;spacingLeft=3;spacingRight=3;rotatable=0;labelPosition=right;points=[];portConstraint=eastwest;strokeColor=inherit;" parent="JQG7szLsVoPtQsITSdDX-89" vertex="1">
          <mxGeometry y="26" width="160" height="8" as="geometry" />
        </mxCell>
        <mxCell id="JQG7szLsVoPtQsITSdDX-93" value="ResistCardsDeck" style="swimlane;fontStyle=1;align=center;verticalAlign=top;childLayout=stackLayout;horizontal=1;startSize=26;horizontalStack=0;resizeParent=1;resizeParentMax=0;resizeLast=0;collapsible=1;marginBottom=0;" parent="1" vertex="1">
          <mxGeometry x="-130" y="378" width="160" height="34" as="geometry" />
        </mxCell>
        <mxCell id="JQG7szLsVoPtQsITSdDX-95" value="" style="line;strokeWidth=1;fillColor=none;align=left;verticalAlign=middle;spacingTop=-1;spacingLeft=3;spacingRight=3;rotatable=0;labelPosition=right;points=[];portConstraint=eastwest;strokeColor=inherit;" parent="JQG7szLsVoPtQsITSdDX-93" vertex="1">
          <mxGeometry y="26" width="160" height="8" as="geometry" />
        </mxCell>
        <mxCell id="rUTjeoC7RKH5R_cGaHuL-3" value="" style="endArrow=open;endFill=1;endSize=12;html=1;rounded=0;entryX=-0.005;entryY=0.146;entryDx=0;entryDy=0;entryPerimeter=0;exitX=1.003;exitY=0.073;exitDx=0;exitDy=0;exitPerimeter=0;" parent="1" source="JQG7szLsVoPtQsITSdDX-40" edge="1">
          <mxGeometry width="160" relative="1" as="geometry">
            <mxPoint x="1060" y="270" as="sourcePoint" />
            <mxPoint x="1359.1999999999998" y="303.79600000000005" as="targetPoint" />
          </mxGeometry>
        </mxCell>
        <mxCell id="rUTjeoC7RKH5R_cGaHuL-4" value="" style="endArrow=open;endFill=1;endSize=12;html=1;rounded=0;exitX=0.471;exitY=-0.004;exitDx=0;exitDy=0;exitPerimeter=0;entryX=1;entryY=0.25;entryDx=0;entryDy=0;" parent="1" source="JQG7szLsVoPtQsITSdDX-37" target="JQG7szLsVoPtQsITSdDX-41" edge="1">
          <mxGeometry width="160" relative="1" as="geometry">
            <mxPoint x="1040" y="190" as="sourcePoint" />
            <mxPoint x="830" y="167" as="targetPoint" />
            <Array as="points">
              <mxPoint x="1070" y="100" />
            </Array>
          </mxGeometry>
        </mxCell>
        <mxCell id="rUTjeoC7RKH5R_cGaHuL-5" value="Extends" style="endArrow=block;endSize=16;endFill=0;html=1;rounded=0;exitX=0.5;exitY=0;exitDx=0;exitDy=0;" parent="1" source="JQG7szLsVoPtQsITSdDX-77" edge="1">
          <mxGeometry width="160" relative="1" as="geometry">
            <mxPoint x="330" y="770" as="sourcePoint" />
            <mxPoint x="330" y="720" as="targetPoint" />
          </mxGeometry>
        </mxCell>
        <mxCell id="rUTjeoC7RKH5R_cGaHuL-6" value="Extends" style="endArrow=block;endSize=16;endFill=0;html=1;rounded=0;exitX=0.37;exitY=-0.026;exitDx=0;exitDy=0;exitPerimeter=0;" parent="1" source="JQG7szLsVoPtQsITSdDX-45" edge="1">
          <mxGeometry width="160" relative="1" as="geometry">
            <mxPoint x="290" y="710" as="sourcePoint" />
            <mxPoint x="430" y="720" as="targetPoint" />
          </mxGeometry>
        </mxCell>
        <mxCell id="rUTjeoC7RKH5R_cGaHuL-7" value="Extends" style="endArrow=block;endSize=16;endFill=0;html=1;rounded=0;exitX=0.25;exitY=0;exitDx=0;exitDy=0;" parent="1" source="JQG7szLsVoPtQsITSdDX-69" edge="1">
          <mxGeometry width="160" relative="1" as="geometry">
            <mxPoint x="520" y="720" as="sourcePoint" />
            <mxPoint x="490" y="720" as="targetPoint" />
            <Array as="points" />
          </mxGeometry>
        </mxCell>
        <mxCell id="rUTjeoC7RKH5R_cGaHuL-9" value="Extends" style="endArrow=block;endSize=16;endFill=0;html=1;rounded=0;entryX=0;entryY=0.5;entryDx=0;entryDy=0;" parent="1" target="JQG7szLsVoPtQsITSdDX-73" edge="1">
          <mxGeometry width="160" relative="1" as="geometry">
            <mxPoint x="270" y="480" as="sourcePoint" />
            <mxPoint x="330" y="500" as="targetPoint" />
          </mxGeometry>
        </mxCell>
        <mxCell id="rUTjeoC7RKH5R_cGaHuL-10" value="Extends" style="endArrow=block;endSize=16;endFill=0;html=1;rounded=0;entryX=0;entryY=0.25;entryDx=0;entryDy=0;exitX=1;exitY=0.75;exitDx=0;exitDy=0;" parent="1" source="JQG7szLsVoPtQsITSdDX-89" target="JQG7szLsVoPtQsITSdDX-73" edge="1">
          <mxGeometry width="160" relative="1" as="geometry">
            <mxPoint x="270" y="420.5" as="sourcePoint" />
            <mxPoint x="330" y="460" as="targetPoint" />
          </mxGeometry>
        </mxCell>
        <mxCell id="rUTjeoC7RKH5R_cGaHuL-11" value="" style="endArrow=diamondThin;endFill=1;endSize=24;html=1;rounded=0;exitX=0;exitY=0.5;exitDx=0;exitDy=0;entryX=1;entryY=0.5;entryDx=0;entryDy=0;" parent="1" source="JQG7szLsVoPtQsITSdDX-61" target="JQG7szLsVoPtQsITSdDX-65" edge="1">
          <mxGeometry width="160" relative="1" as="geometry">
            <mxPoint x="110" y="540" as="sourcePoint" />
            <mxPoint x="30" y="540" as="targetPoint" />
            <Array as="points">
              <mxPoint x="80" y="480" />
            </Array>
          </mxGeometry>
        </mxCell>
        <mxCell id="rUTjeoC7RKH5R_cGaHuL-13" value="" style="endArrow=diamondThin;endFill=1;endSize=24;html=1;rounded=0;entryX=1.007;entryY=0.792;entryDx=0;entryDy=0;entryPerimeter=0;exitX=-0.013;exitY=0.854;exitDx=0;exitDy=0;exitPerimeter=0;" parent="1" edge="1">
          <mxGeometry width="160" relative="1" as="geometry">
            <mxPoint x="106.80000000000007" y="401.614" as="sourcePoint" />
            <mxPoint x="29.99999999999989" y="400.002" as="targetPoint" />
          </mxGeometry>
        </mxCell>
        <mxCell id="rUTjeoC7RKH5R_cGaHuL-14" value="" style="endArrow=open;endFill=1;endSize=12;html=1;rounded=0;exitX=0.625;exitY=0.5;exitDx=0;exitDy=0;exitPerimeter=0;" parent="1" source="JQG7szLsVoPtQsITSdDX-43" edge="1">
          <mxGeometry width="160" relative="1" as="geometry">
            <mxPoint x="770" y="190" as="sourcePoint" />
            <mxPoint x="770" y="310" as="targetPoint" />
          </mxGeometry>
        </mxCell>
        <mxCell id="rUTjeoC7RKH5R_cGaHuL-15" value="" style="endArrow=open;endFill=1;endSize=12;html=1;rounded=0;entryX=0.63;entryY=-0.021;entryDx=0;entryDy=0;entryPerimeter=0;exitX=0.144;exitY=0.688;exitDx=0;exitDy=0;exitPerimeter=0;" parent="1" source="JQG7szLsVoPtQsITSdDX-43" target="JQG7szLsVoPtQsITSdDX-85" edge="1">
          <mxGeometry width="160" relative="1" as="geometry">
            <mxPoint x="690" y="189" as="sourcePoint" />
            <mxPoint x="590" y="190" as="targetPoint" />
          </mxGeometry>
        </mxCell>
        <mxCell id="rUTjeoC7RKH5R_cGaHuL-17" value="" style="endArrow=open;endFill=1;endSize=12;html=1;rounded=0;exitX=0;exitY=0.75;exitDx=0;exitDy=0;entryX=1;entryY=0.25;entryDx=0;entryDy=0;" parent="1" source="JQG7szLsVoPtQsITSdDX-41" target="JQG7szLsVoPtQsITSdDX-81" edge="1">
          <mxGeometry width="160" relative="1" as="geometry">
            <mxPoint x="670" y="189" as="sourcePoint" />
            <mxPoint x="460" y="210" as="targetPoint" />
          </mxGeometry>
        </mxCell>
        <mxCell id="rUTjeoC7RKH5R_cGaHuL-18" value="" style="endArrow=open;endFill=1;endSize=12;html=1;rounded=0;exitX=-0.018;exitY=0.086;exitDx=0;exitDy=0;exitPerimeter=0;entryX=0;entryY=0.25;entryDx=0;entryDy=0;" parent="1" source="JQG7szLsVoPtQsITSdDX-41" target="YSj9dfxvYQV-vy0zDjBh-36" edge="1">
          <mxGeometry width="160" relative="1" as="geometry">
            <mxPoint x="270" y="140" as="sourcePoint" />
            <mxPoint x="-190" y="550" as="targetPoint" />
            <Array as="points">
              <mxPoint x="-190" y="93" />
              <mxPoint x="-190" y="537" />
            </Array>
          </mxGeometry>
        </mxCell>
        <mxCell id="rUTjeoC7RKH5R_cGaHuL-24" value="" style="endArrow=none;html=1;rounded=0;entryX=0.5;entryY=1;entryDx=0;entryDy=0;" parent="1" target="JQG7szLsVoPtQsITSdDX-53" edge="1">
          <mxGeometry width="50" height="50" relative="1" as="geometry">
            <mxPoint x="281" y="960" as="sourcePoint" />
            <mxPoint x="280.8000000000002" y="852.99" as="targetPoint" />
          </mxGeometry>
        </mxCell>
        <mxCell id="rUTjeoC7RKH5R_cGaHuL-26" value="" style="endArrow=none;html=1;rounded=0;entryX=0.5;entryY=1;entryDx=0;entryDy=0;" parent="1" target="JQG7szLsVoPtQsITSdDX-45" edge="1">
          <mxGeometry width="50" height="50" relative="1" as="geometry">
            <mxPoint x="480" y="960" as="sourcePoint" />
            <mxPoint x="480" y="876" as="targetPoint" />
          </mxGeometry>
        </mxCell>
        <mxCell id="rUTjeoC7RKH5R_cGaHuL-28" value="" style="endArrow=none;html=1;rounded=0;" parent="1" edge="1">
          <mxGeometry width="50" height="50" relative="1" as="geometry">
            <mxPoint x="70" y="960" as="sourcePoint" />
            <mxPoint x="70" y="860" as="targetPoint" />
          </mxGeometry>
        </mxCell>
        <mxCell id="rUTjeoC7RKH5R_cGaHuL-29" value="" style="endArrow=none;html=1;rounded=0;entryX=0.442;entryY=0.875;entryDx=0;entryDy=0;entryPerimeter=0;" parent="1" target="JQG7szLsVoPtQsITSdDX-71" edge="1">
          <mxGeometry width="50" height="50" relative="1" as="geometry">
            <mxPoint x="680" y="960" as="sourcePoint" />
            <mxPoint x="680" y="876" as="targetPoint" />
          </mxGeometry>
        </mxCell>
        <mxCell id="rUTjeoC7RKH5R_cGaHuL-31" value="" style="endArrow=none;html=1;rounded=0;" parent="1" edge="1">
          <mxGeometry width="50" height="50" relative="1" as="geometry">
            <mxPoint x="70" y="960" as="sourcePoint" />
            <mxPoint x="680" y="960" as="targetPoint" />
          </mxGeometry>
        </mxCell>
        <mxCell id="rUTjeoC7RKH5R_cGaHuL-33" value="" style="endArrow=open;endFill=1;endSize=12;html=1;rounded=0;exitX=0;exitY=0.75;exitDx=0;exitDy=0;entryX=0.818;entryY=-0.007;entryDx=0;entryDy=0;entryPerimeter=0;" parent="1" source="JQG7szLsVoPtQsITSdDX-85" target="JQG7szLsVoPtQsITSdDX-93" edge="1">
          <mxGeometry width="160" relative="1" as="geometry">
            <mxPoint x="460" y="307" as="sourcePoint" />
            <mxPoint y="330" as="targetPoint" />
            <Array as="points">
              <mxPoint x="1" y="290" />
            </Array>
          </mxGeometry>
        </mxCell>
        <mxCell id="rUTjeoC7RKH5R_cGaHuL-34" value="" style="endArrow=open;endFill=1;endSize=12;html=1;rounded=0;entryX=0.61;entryY=-0.016;entryDx=0;entryDy=0;entryPerimeter=0;" parent="1" target="JQG7szLsVoPtQsITSdDX-21" edge="1">
          <mxGeometry width="160" relative="1" as="geometry">
            <mxPoint x="1478" y="410" as="sourcePoint" />
            <mxPoint x="1450" y="410" as="targetPoint" />
          </mxGeometry>
        </mxCell>
        <mxCell id="rUTjeoC7RKH5R_cGaHuL-35" value="" style="endArrow=open;endFill=1;endSize=12;html=1;rounded=0;entryX=0.5;entryY=1;entryDx=0;entryDy=0;" parent="1" target="JQG7szLsVoPtQsITSdDX-5" edge="1">
          <mxGeometry width="160" relative="1" as="geometry">
            <mxPoint x="1470" y="270" as="sourcePoint" />
            <mxPoint x="1468.7199999999998" y="164.212" as="targetPoint" />
          </mxGeometry>
        </mxCell>
        <mxCell id="rUTjeoC7RKH5R_cGaHuL-36" value="" style="endArrow=open;endFill=1;endSize=12;html=1;rounded=0;entryX=0.5;entryY=0;entryDx=0;entryDy=0;" parent="1" target="JQG7szLsVoPtQsITSdDX-14" edge="1">
          <mxGeometry width="160" relative="1" as="geometry">
            <mxPoint x="1476" y="310" as="sourcePoint" />
            <mxPoint x="1670" y="410" as="targetPoint" />
            <Array as="points">
              <mxPoint x="1476" y="410" />
              <mxPoint x="1680" y="410" />
            </Array>
          </mxGeometry>
        </mxCell>
        <mxCell id="rUTjeoC7RKH5R_cGaHuL-37" value="" style="endArrow=open;endFill=1;endSize=12;html=1;rounded=0;entryX=0.5;entryY=1;entryDx=0;entryDy=0;" parent="1" target="JQG7szLsVoPtQsITSdDX-25" edge="1">
          <mxGeometry width="160" relative="1" as="geometry">
            <mxPoint x="1470" y="240" as="sourcePoint" />
            <mxPoint x="1680" y="164.212" as="targetPoint" />
            <Array as="points">
              <mxPoint x="1680" y="240" />
            </Array>
          </mxGeometry>
        </mxCell>
        <mxCell id="rUTjeoC7RKH5R_cGaHuL-39" value="" style="endArrow=open;endFill=1;endSize=12;html=1;rounded=0;" parent="1" edge="1">
          <mxGeometry width="160" relative="1" as="geometry">
            <mxPoint x="1520" y="300" as="sourcePoint" />
            <mxPoint x="1600" y="300.5" as="targetPoint" />
            <Array as="points">
              <mxPoint x="1570" y="300.5" />
            </Array>
          </mxGeometry>
        </mxCell>
        <mxCell id="rUTjeoC7RKH5R_cGaHuL-42" value="" style="endArrow=open;endFill=1;endSize=12;html=1;rounded=0;entryX=1;entryY=0;entryDx=0;entryDy=0;" parent="1" target="JQG7szLsVoPtQsITSdDX-37" edge="1">
          <mxGeometry width="160" relative="1" as="geometry">
            <mxPoint x="1360" y="306" as="sourcePoint" />
            <mxPoint x="1220" y="306" as="targetPoint" />
          </mxGeometry>
        </mxCell>
        <mxCell id="rUTjeoC7RKH5R_cGaHuL-48" value="" style="endArrow=open;endFill=1;endSize=12;html=1;rounded=0;" parent="1" edge="1">
          <mxGeometry width="160" relative="1" as="geometry">
            <mxPoint x="840" y="100" as="sourcePoint" />
            <mxPoint x="1070" y="220" as="targetPoint" />
            <Array as="points">
              <mxPoint x="1070" y="100" />
            </Array>
          </mxGeometry>
        </mxCell>
        <mxCell id="YSj9dfxvYQV-vy0zDjBh-14" value="BonusCard" style="swimlane;fontStyle=1;align=center;verticalAlign=top;childLayout=stackLayout;horizontal=1;startSize=26;horizontalStack=0;resizeParent=1;resizeParentMax=0;resizeLast=0;collapsible=1;marginBottom=0;" parent="1" vertex="1">
          <mxGeometry x="110" y="533" width="160" height="34" as="geometry" />
        </mxCell>
        <mxCell id="YSj9dfxvYQV-vy0zDjBh-16" value="" style="line;strokeWidth=1;fillColor=none;align=left;verticalAlign=middle;spacingTop=-1;spacingLeft=3;spacingRight=3;rotatable=0;labelPosition=right;points=[];portConstraint=eastwest;strokeColor=inherit;" parent="YSj9dfxvYQV-vy0zDjBh-14" vertex="1">
          <mxGeometry y="26" width="160" height="8" as="geometry" />
        </mxCell>
        <mxCell id="YSj9dfxvYQV-vy0zDjBh-18" value="Extends" style="endArrow=block;endSize=16;endFill=0;html=1;rounded=0;exitX=1;exitY=0.5;exitDx=0;exitDy=0;entryX=0;entryY=1;entryDx=0;entryDy=0;" parent="1" source="YSj9dfxvYQV-vy0zDjBh-14" edge="1" target="JQG7szLsVoPtQsITSdDX-73">
          <mxGeometry width="160" relative="1" as="geometry">
            <mxPoint x="280" y="490" as="sourcePoint" />
            <mxPoint x="350" y="460" as="targetPoint" />
            <Array as="points" />
          </mxGeometry>
        </mxCell>
        <mxCell id="YSj9dfxvYQV-vy0zDjBh-28" value="CardFactory" style="swimlane;fontStyle=1;align=center;verticalAlign=top;childLayout=stackLayout;horizontal=1;startSize=26;horizontalStack=0;resizeParent=1;resizeParentMax=0;resizeLast=0;collapsible=1;marginBottom=0;" parent="1" vertex="1">
          <mxGeometry x="560" y="450" width="160" height="34" as="geometry" />
        </mxCell>
        <mxCell id="YSj9dfxvYQV-vy0zDjBh-30" value="" style="line;strokeWidth=1;fillColor=none;align=left;verticalAlign=middle;spacingTop=-1;spacingLeft=3;spacingRight=3;rotatable=0;labelPosition=right;points=[];portConstraint=eastwest;strokeColor=inherit;" parent="YSj9dfxvYQV-vy0zDjBh-28" vertex="1">
          <mxGeometry y="26" width="160" height="8" as="geometry" />
        </mxCell>
        <mxCell id="YSj9dfxvYQV-vy0zDjBh-34" value="" style="endArrow=open;endFill=1;endSize=12;html=1;rounded=0;exitX=-0.003;exitY=0.215;exitDx=0;exitDy=0;exitPerimeter=0;" parent="1" target="YSj9dfxvYQV-vy0zDjBh-33" edge="1">
          <mxGeometry width="160" relative="1" as="geometry">
            <mxPoint x="559.52" y="469.59000000000003" as="sourcePoint" />
            <mxPoint x="710" y="520" as="targetPoint" />
          </mxGeometry>
        </mxCell>
        <mxCell id="YSj9dfxvYQV-vy0zDjBh-35" value="" style="endArrow=open;endFill=1;endSize=12;html=1;rounded=0;exitX=0.25;exitY=1;exitDx=0;exitDy=0;entryX=0.38;entryY=0.006;entryDx=0;entryDy=0;entryPerimeter=0;" parent="1" source="JQG7szLsVoPtQsITSdDX-41" edge="1" target="YSj9dfxvYQV-vy0zDjBh-28">
          <mxGeometry width="160" relative="1" as="geometry">
            <mxPoint x="600" y="340" as="sourcePoint" />
            <mxPoint x="620" y="430" as="targetPoint" />
            <Array as="points">
              <mxPoint x="620" y="320" />
            </Array>
          </mxGeometry>
        </mxCell>
        <mxCell id="YSj9dfxvYQV-vy0zDjBh-36" value="BonusDeck" style="swimlane;fontStyle=1;align=center;verticalAlign=top;childLayout=stackLayout;horizontal=1;startSize=26;horizontalStack=0;resizeParent=1;resizeParentMax=0;resizeLast=0;collapsible=1;marginBottom=0;" parent="1" vertex="1">
          <mxGeometry x="-130" y="528" width="160" height="34" as="geometry" />
        </mxCell>
        <mxCell id="YSj9dfxvYQV-vy0zDjBh-38" value="" style="line;strokeWidth=1;fillColor=none;align=left;verticalAlign=middle;spacingTop=-1;spacingLeft=3;spacingRight=3;rotatable=0;labelPosition=right;points=[];portConstraint=eastwest;strokeColor=inherit;" parent="YSj9dfxvYQV-vy0zDjBh-36" vertex="1">
          <mxGeometry y="26" width="160" height="8" as="geometry" />
        </mxCell>
        <mxCell id="YSj9dfxvYQV-vy0zDjBh-41" value="" style="endArrow=diamondThin;endFill=1;endSize=24;html=1;rounded=0;exitX=0;exitY=0.5;exitDx=0;exitDy=0;entryX=1;entryY=0.5;entryDx=0;entryDy=0;" parent="1" edge="1">
          <mxGeometry width="160" relative="1" as="geometry">
            <mxPoint x="110" y="544.47" as="sourcePoint" />
            <mxPoint x="30" y="544.47" as="targetPoint" />
            <Array as="points" />
          </mxGeometry>
        </mxCell>
        <mxCell id="YSj9dfxvYQV-vy0zDjBh-43" value="" style="endArrow=open;endFill=1;endSize=12;html=1;rounded=0;entryX=0;entryY=0.25;entryDx=0;entryDy=0;" parent="1" edge="1" target="JQG7szLsVoPtQsITSdDX-93">
          <mxGeometry width="160" relative="1" as="geometry">
            <mxPoint x="-190" y="387" as="sourcePoint" />
            <mxPoint x="-130" y="390" as="targetPoint" />
          </mxGeometry>
        </mxCell>
        <mxCell id="YSj9dfxvYQV-vy0zDjBh-44" value="" style="endArrow=open;endFill=1;endSize=12;html=1;rounded=0;" parent="1" edge="1">
          <mxGeometry width="160" relative="1" as="geometry">
            <mxPoint x="-190" y="470" as="sourcePoint" />
            <mxPoint x="-130" y="470" as="targetPoint" />
          </mxGeometry>
        </mxCell>
        <mxCell id="rb9hFaZGPkE7uMHk5LES-1" value="&lt;&lt;interface&gt;&gt;&#xa;CardDeck" style="swimlane;fontStyle=1;align=center;verticalAlign=top;childLayout=stackLayout;horizontal=1;startSize=34;horizontalStack=0;resizeParent=1;resizeParentMax=0;resizeLast=0;collapsible=1;marginBottom=0;" vertex="1" parent="1">
          <mxGeometry x="-410" y="394" width="160" height="42" as="geometry" />
        </mxCell>
        <mxCell id="rb9hFaZGPkE7uMHk5LES-3" value="" style="line;strokeWidth=1;fillColor=none;align=left;verticalAlign=middle;spacingTop=-1;spacingLeft=3;spacingRight=3;rotatable=0;labelPosition=right;points=[];portConstraint=eastwest;strokeColor=inherit;" vertex="1" parent="rb9hFaZGPkE7uMHk5LES-1">
          <mxGeometry y="34" width="160" height="8" as="geometry" />
        </mxCell>
        <mxCell id="rb9hFaZGPkE7uMHk5LES-6" value="" style="endArrow=none;dashed=1;html=1;rounded=0;" edge="1" parent="1">
          <mxGeometry width="50" height="50" relative="1" as="geometry">
            <mxPoint x="-210" y="410" as="sourcePoint" />
            <mxPoint x="-130" y="410" as="targetPoint" />
          </mxGeometry>
        </mxCell>
        <mxCell id="rb9hFaZGPkE7uMHk5LES-7" value="" style="endArrow=none;dashed=1;html=1;rounded=0;exitX=0;exitY=0.75;exitDx=0;exitDy=0;" edge="1" parent="1" source="YSj9dfxvYQV-vy0zDjBh-36">
          <mxGeometry width="50" height="50" relative="1" as="geometry">
            <mxPoint x="-210" y="610" as="sourcePoint" />
            <mxPoint x="-210" y="410" as="targetPoint" />
            <Array as="points">
              <mxPoint x="-210" y="554" />
            </Array>
          </mxGeometry>
        </mxCell>
        <mxCell id="rb9hFaZGPkE7uMHk5LES-8" value="" style="endArrow=none;dashed=1;html=1;rounded=0;" edge="1" parent="1">
          <mxGeometry width="50" height="50" relative="1" as="geometry">
            <mxPoint x="-210" y="484" as="sourcePoint" />
            <mxPoint x="-130" y="484" as="targetPoint" />
          </mxGeometry>
        </mxCell>
        <mxCell id="rb9hFaZGPkE7uMHk5LES-10" value="" style="endArrow=block;dashed=1;endFill=0;endSize=12;html=1;rounded=0;entryX=0.5;entryY=1;entryDx=0;entryDy=0;" edge="1" parent="1" target="rb9hFaZGPkE7uMHk5LES-1">
          <mxGeometry width="160" relative="1" as="geometry">
            <mxPoint x="-210" y="480" as="sourcePoint" />
            <mxPoint x="-170" y="480" as="targetPoint" />
            <Array as="points">
              <mxPoint x="-330" y="480" />
            </Array>
          </mxGeometry>
        </mxCell>
        <mxCell id="rb9hFaZGPkE7uMHk5LES-12" value="Mission" style="swimlane;fontStyle=1;align=center;verticalAlign=top;childLayout=stackLayout;horizontal=1;startSize=26;horizontalStack=0;resizeParent=1;resizeParentMax=0;resizeLast=0;collapsible=1;marginBottom=0;" vertex="1" parent="1">
          <mxGeometry x="110" y="140" width="160" height="34" as="geometry" />
        </mxCell>
        <mxCell id="rb9hFaZGPkE7uMHk5LES-14" value="" style="line;strokeWidth=1;fillColor=none;align=left;verticalAlign=middle;spacingTop=-1;spacingLeft=3;spacingRight=3;rotatable=0;labelPosition=right;points=[];portConstraint=eastwest;strokeColor=inherit;" vertex="1" parent="rb9hFaZGPkE7uMHk5LES-12">
          <mxGeometry y="26" width="160" height="8" as="geometry" />
        </mxCell>
        <mxCell id="rb9hFaZGPkE7uMHk5LES-16" value="" style="endArrow=open;endFill=1;endSize=12;html=1;rounded=0;exitX=0;exitY=0.75;exitDx=0;exitDy=0;entryX=1;entryY=0.5;entryDx=0;entryDy=0;" edge="1" parent="1" target="rb9hFaZGPkE7uMHk5LES-12">
          <mxGeometry width="160" relative="1" as="geometry">
            <mxPoint x="670" y="107" as="sourcePoint" />
            <mxPoint x="270" y="230" as="targetPoint" />
          </mxGeometry>
        </mxCell>
        <mxCell id="rb9hFaZGPkE7uMHk5LES-18" value="" style="endArrow=open;endFill=1;endSize=12;html=1;rounded=0;entryX=0.378;entryY=0.053;entryDx=0;entryDy=0;entryPerimeter=0;" edge="1" parent="1" target="JQG7szLsVoPtQsITSdDX-41">
          <mxGeometry width="160" relative="1" as="geometry">
            <mxPoint x="780" y="90" as="sourcePoint" />
            <mxPoint x="690" y="70" as="targetPoint" />
            <Array as="points">
              <mxPoint x="780" y="60" />
              <mxPoint x="730" y="60" />
            </Array>
          </mxGeometry>
        </mxCell>
        <mxCell id="rb9hFaZGPkE7uMHk5LES-19" value="" style="endArrow=open;endFill=1;endSize=12;html=1;rounded=0;entryX=0.378;entryY=0.053;entryDx=0;entryDy=0;entryPerimeter=0;" edge="1" parent="1">
          <mxGeometry width="160" relative="1" as="geometry">
            <mxPoint x="1430" y="272.2" as="sourcePoint" />
            <mxPoint x="1380.48" y="274.002" as="targetPoint" />
            <Array as="points">
              <mxPoint x="1430" y="252.2" />
              <mxPoint x="1430" y="242.2" />
              <mxPoint x="1380" y="242.2" />
            </Array>
          </mxGeometry>
        </mxCell>
        <mxCell id="rb9hFaZGPkE7uMHk5LES-20" value="" style="endArrow=open;endFill=1;endSize=12;html=1;rounded=0;exitX=0.25;exitY=1;exitDx=0;exitDy=0;" edge="1" parent="1" source="JQG7szLsVoPtQsITSdDX-37">
          <mxGeometry width="160" relative="1" as="geometry">
            <mxPoint x="1050" y="280" as="sourcePoint" />
            <mxPoint x="1090" y="250" as="targetPoint" />
            <Array as="points">
              <mxPoint x="1045" y="270" />
              <mxPoint x="1090" y="270" />
            </Array>
          </mxGeometry>
        </mxCell>
        <mxCell id="rb9hFaZGPkE7uMHk5LES-23" value="" style="endArrow=open;endFill=1;endSize=12;html=1;rounded=0;entryX=0.378;entryY=0.053;entryDx=0;entryDy=0;entryPerimeter=0;" edge="1" parent="1">
          <mxGeometry width="160" relative="1" as="geometry">
            <mxPoint x="-25" y="376.2" as="sourcePoint" />
            <mxPoint x="-74.51999999999998" y="378.002" as="targetPoint" />
            <Array as="points">
              <mxPoint x="-25" y="346.2" />
              <mxPoint x="-75" y="346.2" />
            </Array>
          </mxGeometry>
        </mxCell>
        <mxCell id="rb9hFaZGPkE7uMHk5LES-27" value="" style="endArrow=open;endFill=1;endSize=12;html=1;rounded=0;entryX=0.378;entryY=0.053;entryDx=0;entryDy=0;entryPerimeter=0;" edge="1" parent="1">
          <mxGeometry width="160" relative="1" as="geometry">
            <mxPoint x="-30" y="462.2" as="sourcePoint" />
            <mxPoint x="-79.51999999999998" y="464.002" as="targetPoint" />
            <Array as="points">
              <mxPoint x="-30" y="432.2" />
              <mxPoint x="-80" y="432.2" />
            </Array>
          </mxGeometry>
        </mxCell>
        <mxCell id="rb9hFaZGPkE7uMHk5LES-33" value="" style="endArrow=none;html=1;rounded=0;entryX=0.938;entryY=0.5;entryDx=0;entryDy=0;entryPerimeter=0;" edge="1" parent="1" target="JQG7szLsVoPtQsITSdDX-43">
          <mxGeometry relative="1" as="geometry">
            <mxPoint x="380" y="960" as="sourcePoint" />
            <mxPoint x="820" y="130" as="targetPoint" />
            <Array as="points">
              <mxPoint x="380" y="1020" />
              <mxPoint x="820" y="1020" />
            </Array>
          </mxGeometry>
        </mxCell>
        <mxCell id="rb9hFaZGPkE7uMHk5LES-34" value="" style="endArrow=open;endFill=1;endSize=12;html=1;rounded=0;" edge="1" parent="1">
          <mxGeometry width="160" relative="1" as="geometry">
            <mxPoint x="70" y="960" as="sourcePoint" />
            <mxPoint x="70" y="860" as="targetPoint" />
          </mxGeometry>
        </mxCell>
        <mxCell id="rb9hFaZGPkE7uMHk5LES-35" value="" style="endArrow=open;endFill=1;endSize=12;html=1;rounded=0;" edge="1" parent="1">
          <mxGeometry width="160" relative="1" as="geometry">
            <mxPoint x="280" y="960" as="sourcePoint" />
            <mxPoint x="280" y="860" as="targetPoint" />
          </mxGeometry>
        </mxCell>
        <mxCell id="rb9hFaZGPkE7uMHk5LES-36" value="" style="endArrow=open;endFill=1;endSize=12;html=1;rounded=0;" edge="1" parent="1">
          <mxGeometry width="160" relative="1" as="geometry">
            <mxPoint x="480" y="960" as="sourcePoint" />
            <mxPoint x="480" y="860" as="targetPoint" />
          </mxGeometry>
        </mxCell>
        <mxCell id="rb9hFaZGPkE7uMHk5LES-37" value="" style="endArrow=open;endFill=1;endSize=12;html=1;rounded=0;" edge="1" parent="1">
          <mxGeometry width="160" relative="1" as="geometry">
            <mxPoint x="680" y="960" as="sourcePoint" />
            <mxPoint x="680" y="860" as="targetPoint" />
          </mxGeometry>
        </mxCell>
      </root>
    </mxGraphModel>
  </diagram>
</mxfile>
